PathFileType	4	(X/Y/Z)	Run_400 01
DataRate	CameraRate	NumFrames	NumMarkers	Units	OrigDataRate	OrigDataStartFrame	OrigNumFrames
120	120	7	42	mm	120	40	128
Frame#	Time	LASI			RASI			LPSI			RTH1			RTH2			RTH3			LTH1			LTH2			LTH3			RTB1			RTB2			RTB3			LTB1			LTB2			LTB3			RCAL			RTOE			RMT5			LCAL			LTOE			LMT5			LACR			RACR			CLAV			C7			RUA1			RUA2			RUA3			RLEL			RMEL			LUA1			LUA2			LUA3			LLEL			LMEL			RFAsuperior			RFAradius			LFAsuperior			LFAradius			LFAulna			RFAulna			RPSI			
		X1	Y1	Z1	X2	Y2	Z2	X3	Y3	Z3	X4	Y4	Z4	X5	Y5	Z5	X6	Y6	Z6	X7	Y7	Z7	X8	Y8	Z8	X9	Y9	Z9	X10	Y10	Z10	X11	Y11	Z11	X12	Y12	Z12	X13	Y13	Z13	X14	Y14	Z14	X15	Y15	Z15	X16	Y16	Z16	X17	Y17	Z17	X18	Y18	Z18	X19	Y19	Z19	X20	Y20	Z20	X21	Y21	Z21	X22	Y22	Z22	X23	Y23	Z23	X24	Y24	Z24	X25	Y25	Z25	X26	Y26	Z26	X27	Y27	Z27	X28	Y28	Z28	X29	Y29	Z29	X30	Y30	Z30	X31	Y31	Z31	X32	Y32	Z32	X33	Y33	Z33	X34	Y34	Z34	X35	Y35	Z35	X36	Y36	Z36	X37	Y37	Z37	X38	Y38	Z38	X39	Y39	Z39	X40	Y40	Z40	X41	Y41	Z41	X42	Y42	Z42	

31	0.891667	1132.555163	1057.699161	-436.148653	1127.394226	1034.66315	-206.551077	969.348607	1106.891175	-373.957708	1013.166594	896.466212	-152.950403	1012.600822	738.099348	-191.815654	916.930805	681.262191	-207.645781	1132.303782	934.593229	-513.610174	1248.99536	892.216275	-487.948191	1265.929097	751.495381	-477.085934	832.726025	455.864935	-275.901901	761.017745	444.919744	-209.532198	696.3480939999999	336.227404	-273.018191	1367.515315	548.70331	-430.583253	1288.845642	468.590452	-471.614312	1281.25207	367.51457	-406.834591	528.761644	342.913178	-277.128484	604.674559	154.357474	-334.499282	571.876975	133.24087	-234.066819	1128.806866	288.547422	-381.981189	1316.03435	200.254105	-356.363813	1288.406048	164.645473	-455.171791	1064.919038	1542.764856	-491.41721	1153.226653	1531.592555	-149.116647	1182.533029	1484.665812	-319.746829	1068.439729	1564.792245	-320.74356	1136.252465	1453.292272	-96.179179	1139.923856	1363.645079	-103.905462	1054.001325	1368.381784	-72.40507100000001	1036.603695	1253.198368	-40.809206	1000.526148	1248.395792	-104.835838	997.463848	1518.583714	-526.977751	939.709595	1491.829768	-475.270781	928.654505	1440.066576	-546.243741	807.079606	1400.921098	-542.379679	808.45264	1398.728692	-468.278435	1131.676988	1253.460673	-69.3164	1274.895181	1226.840033	-169.387165	859.717482	1342.482526	-568.387347	993.687761	1195.09607	-547.611529	935.219423	1164.241558	-560.136704	1264.423048	1160.40078	-162.639698	971.968136	1101.185794	-273.967048	
32	0.9	1131.963898	1060.14752	-434.97217	1127.273238	1038.629641	-205.280464	968.851359	1110.784438	-373.507316	1012.216192	901.175328	-152.997864	1014.526065	740.9016360000001	-193.168542	919.605043	682.832887	-208.351672	1128.036936	928.865144	-510.725998	1244.070606	888.009713	-490.314939	1259.692097	747.718841	-474.543089	827.305385	461.388419	-278.209372	757.413491	453.4821	-210.160689	684.472993	350.500069	-273.234857	1371.613784	546.434892	-428.165384	1302.295233	458.841549	-470.450712	1302.680163	357.925373	-404.969309	515.85526	365.526901	-272.81852	583.822689	175.831033	-335.130125	552.791876	153.663501	-234.263943	1158.129912	266.891356	-380.226302	1351.321617	193.663465	-352.960208	1326.759128	154.030457	-452.130352	1064.288929	1545.783117	-492.589869	1152.862369	1535.759587	-150.572605	1182.290298	1488.399622	-320.982786	1068.248252	1568.274573	-322.060673	1135.746402	1458.393165	-97.247027	1139.901783	1369.088247	-103.801631	1053.835891	1373.269814	-73.098558	1036.319531	1258.484777	-40.533597	999.647468	1253.807379	-104.517194	996.653294	1522.567784	-527.609755	939.4087050000001	1495.308452	-475.166037	926.99477	1444.607309	-545.817771	805.143807	1405.934016	-540.363967	807.431071	1403.684753	-466.301665	1131.236979	1257.506328	-69.512979	1273.973491	1229.448362	-169.924308	857.878996	1348.224561	-567.086409	994.245047	1202.881	-547.867173	936.380863	1170.798706	-559.824375	1263.156199	1163.175624	-162.715527	971.563949	1105.639312	-273.727043	
33	0.9083329999999999	1131.211907	1061.996739	-433.934214	1127.08236	1042.249357	-203.844366	968.604646	1113.179996	-372.955592	1012.223326	904.394458	-153.282035	1018.369558	742.659809	-195.596617	924.082745	683.183365	-209.253512	1123.223321	920.406375	-505.581458	1239.214446	882.642196	-492.577623	1253.226292	743.211987	-473.456782	823.134473	466.663193	-280.022033	754.257321	462.50356	-210.697898	673.886359	365.261578	-273.139798	1373.631696	542.808373	-425.386369	1314.462617	448.695941	-468.876981	1322.763368	348.672274	-402.941862	504.818542	389.050441	-269.457608	565.069663	198.279093	-335.343796	534.520173	175.401255	-234.319814	1186.822108	247.771617	-378.953048	1384.07405	187.430006	-349.336445	1362.674043	143.818017	-448.129953	1063.858222	1548.10454	-493.869672	1152.589879	1539.028444	-151.91468	1182.059832	1491.56788	-322.239474	1068.20367	1571.134748	-323.485595	1135.148943	1462.265921	-98.32464400000001	1139.509707	1373.31969	-103.92512	1053.256958	1377.310796	-73.873108	1035.506402	1263.026087	-40.438864	998.135819	1258.426814	-104.359227	995.954355	1525.295672	-528.660225	939.061514	1497.778287	-475.407596	925.8179249999999	1447.784361	-545.656296	803.708555	1409.61569	-538.780987	806.776831	1407.067987	-464.767006	1130.420774	1260.181437	-69.476645	1272.659666	1229.490512	-169.847175	856.77115	1352.681494	-566.117674	995.425175	1209.445537	-548.144992	938.2023840000001	1176.129	-559.6863540000001	1260.991131	1163.486287	-161.925294	970.558492	1109.145967	-273.765704	
34	0.916667	1130.396131	1063.390501	-433.137453	1126.912235	1045.467602	-202.41764	968.531202	1114.030119	-372.231628	1013.884785	905.627124	-153.6618	1023.618228	743.5993989999999	-198.925419	929.945827	682.818482	-210.440733	1118.130449	912.2369639999999	-500.467035	1235.377	876.802545	-494.387828	1246.591988	738.093291	-473.408158	820.473496	471.711504	-281.08755	751.70838	472.182865	-211.154738	664.952001	380.23103	-272.578823	1373.657651	537.746047	-422.984081	1324.652994	438.423437	-466.93209	1341.007233	339.965137	-400.941352	496.52859	413.394137	-267.353045	548.742088	220.92886	-334.586809	516.723165	198.448295	-233.896517	1213.92638	231.188386	-378.015578	1413.982237	181.903251	-345.461544	1395.630854	134.347653	-443.076603	1063.697157	1549.658506	-495.212571	1152.483891	1541.401655	-153.249237	1181.854651	1494.006354	-323.486242	1068.274631	1573.278595	-324.979879	1134.605917	1464.982473	-99.394336	1138.783228	1376.347421	-104.275597	1052.342303	1380.639078	-74.751932	1034.156252	1266.871015	-40.501811	996.07492	1262.346115	-104.351066	995.404234	1526.870887	-529.997055	938.77779	1499.327421	-475.837102	925.1194379999999	1449.644108	-545.780619	802.819012	1411.929673	-537.700899	806.539922	1408.772429	-463.882298	1129.208757	1261.642808	-69.10682	1270.933616	1227.143461	-169.127816	856.437822	1355.806033	-565.534415	997.242076	1214.727442	-548.391743	940.709342	1180.165852	-559.679887	1257.915969	1161.524656	-160.01304	969.427902	1111.410329	-273.697436	
35	0.925	1129.644551	1064.431059	-432.510233	1126.842673	1048.157632	-201.189132	968.311362	1113.429891	-371.321921	1017.509187	904.822099	-153.980623	1029.749503	743.886855	-202.642007	936.793877	682.000575	-211.83618	1113.163012	906.430264	-497.326605	1232.901082	870.705573	-495.485396	1239.71821	732.0442430000001	-473.765094	819.488815	476.328918	-281.303924	750.139257	482.494078	-211.671292	657.919526	395.174258	-271.593823	1371.885539	531.226735	-421.053644	1332.275137	428.336058	-464.703448	1356.663304	332.048418	-398.906259	491.332914	438.308862	-266.615837	534.933844	243.380294	-332.647466	499.75838	222.833335	-232.71914	1238.292937	216.741697	-377.188173	1440.399643	177.921357	-341.360734	1425.217831	126.4946	-437.225518	1063.860328	1550.342954	-496.61576	1152.569386	1542.846583	-154.633301	1181.669366	1495.503684	-324.668241	1068.424977	1574.658991	-326.505301	1134.17826	1466.663818	-100.459418	1137.782414	1378.217143	-104.887083	1051.204384	1383.313797	-75.714652	1032.240943	1270.027406	-40.675613	993.609374	1265.614903	-104.471232	995.100069	1527.407	-531.469907	938.684869	1499.962505	-476.370797	924.889236	1450.279217	-546.19953	802.513542	1412.831214	-537.223988	806.725233	1408.871931	-463.730938	1127.535931	1262.040287	-68.316453	1268.731895	1222.629847	-167.749937	856.894785	1357.547487	-565.370495	999.703771	1218.677849	-548.569176	943.925782	1182.845871	-559.790478	1253.831547	1157.559884	-156.914043	968.620896	1112.231085	-273.135234	
36	0.933333	1129.064353	1065.145334	-431.95906	1126.95643	1050.149206	-200.30043	967.6910350000001	1111.550013	-370.249653	1022.780982	902.4451309999999	-154.118695	1036.316584	743.5663060000001	-206.020244	944.215671	680.758836	-213.25501	1108.779115	903.298314	-496.735803	1231.30227	864.121369	-495.802478	1232.370199	724.579376	-473.979401	820.221074	480.268851	-280.786339	750.006722	493.192226	-212.408489	653.009892	409.927525	-270.424875	1368.555273	523.4610300000001	-419.080131	1336.965461	418.839313	-462.357898	1368.973863	325.137627	-396.701404	489.322603	463.468515	-267.097108	523.4972289999999	265.566609	-329.719084	484.648568	248.459489	-230.660498	1258.886615	203.990887	-376.225545	1462.426377	176.037552	-337.301728	1450.876372	120.961364	-431.119935	1064.360472	1550.073457	-498.116141	1152.827454	1543.321845	-156.03135	1181.470716	1495.88694	-325.733616	1068.632071	1575.277004	-328.035301	1133.847878	1467.429937	-101.533621	1136.5599	1378.983756	-105.773089	1049.941229	1385.31048	-76.70675799999999	1029.727507	1272.481881	-40.897405	990.8722289999999	1268.236664	-104.685712	995.140523	1526.953688	-532.978946	938.8784889999999	1499.630375	-477.024154	925.111317	1449.786466	-546.921299	802.8066700000001	1412.253379	-537.462192	807.286025	1407.586128	-464.26069	1125.272581	1261.466393	-67.13788	1265.929083	1216.166541	-165.686096	858.119976	1357.846148	-565.641698	1002.812497	1221.269926	-548.690392	947.8680000000001	1184.126025	-560.009791	1248.571123	1151.881871	-152.868922	968.288754	1111.606984	-271.987723	
37	0.941667	1128.705007	1065.456502	-431.502817	1127.318873	1051.290754	-199.794378	966.702614	1108.594963	-369.054659	1028.892008	899.2334520000001	-154.042743	1042.955391	742.601137	-208.359097	951.816093	678.990935	-214.508774	1105.331737	901.806297	-498.068059	1229.538291	856.640724	-495.494715	1224.210716	715.502835	-473.631081	822.6411869999999	483.383419	-279.848351	751.754822	503.832186	-213.456447	650.463123	424.370898	-269.391749	1363.921641	515.055526	-416.533269	1338.677211	410.349021	-460.097096	1377.504395	319.344544	-394.381075	490.593776	488.532846	-268.500987	514.192175	287.589061	-326.231089	472.542289	275.080718	-227.746361	1275.013969	192.814626	-374.87616	1479.302337	175.839094	-333.749845	1471.732791	117.638966	-425.398479	1065.153405	1548.814585	-499.758084	1153.191986	1542.803042	-157.349624	1181.208452	1495.082944	-326.664064	1068.882893	1575.146562	-329.560615	1133.544685	1467.344829	-102.615348	1135.119287	1378.688079	-106.87967	1048.591126	1386.546408	-77.668936	1026.605385	1274.217447	-41.112587	987.906969	1270.178175	-104.956109	995.567291	1525.478883	-534.521284	939.390877	1498.257329	-477.884107	925.757254	1448.218969	-547.9688630000001	803.675559	1410.111979	-538.495324	808.152887	1405.103356	-465.390926	1122.247378	1259.935059	-65.767194	1262.35121	1207.932489	-162.890715	860.047823	1356.633517	-566.355248	1006.566342	1222.503954	-548.813666	952.5442420000001	1183.996651	-560.316362	1241.976179	1144.737424	-148.307157	968.248561	1109.716011	-270.515546	
